<svg width="30" height="30" viewBox="0 0 30 30" fill="none" xmlns="http://www.w3.org/2000/svg">
<path d="M6.22865 8.99621C7.73915 8.99621 8.96365 7.77171 8.96365 6.26121C8.96365 4.75071 7.73915 3.52621 6.22865 3.52621C4.71815 3.52621 3.49365 4.75071 3.49365 6.26121C3.49365 7.77171 4.71815 8.99621 6.22865 8.99621Z" fill="white"/>
<path d="M11.5461 11.0688V26.2426H16.2573V18.7388C16.2573 16.7588 16.6298 14.8413 19.0848 14.8413C21.5061 14.8413 21.5361 17.1051 21.5361 18.8638V26.2438H26.2498V17.9226C26.2498 13.8351 25.3698 10.6938 20.5923 10.6938C18.2986 10.6938 16.7611 11.9526 16.1323 13.1438H16.0686V11.0688H11.5461ZM3.86859 11.0688H8.58734V26.2426H3.86859V11.0688Z" fill="white"/>
</svg>
