<svg width="30" height="30" viewBox="0 0 30 30" fill="none" xmlns="http://www.w3.org/2000/svg">
<path d="M26.9914 9.00373C26.849 8.47548 26.5708 7.99373 26.1844 7.60644C25.798 7.21914 25.3168 6.9398 24.7889 6.79623C22.8314 6.25873 15.0002 6.24998 15.0002 6.24998C15.0002 6.24998 7.17017 6.24123 5.21142 6.75498C4.68382 6.90516 4.2037 7.18845 3.81713 7.57765C3.43056 7.96684 3.15052 8.44888 3.00392 8.97748C2.48767 10.935 2.48267 14.995 2.48267 14.995C2.48267 14.995 2.47767 19.075 2.99017 21.0125C3.27767 22.0837 4.12142 22.93 5.19392 23.2187C7.17142 23.7562 14.9814 23.765 14.9814 23.765C14.9814 23.765 22.8127 23.7737 24.7702 23.2612C25.2983 23.1179 25.7799 22.8392 26.1672 22.4527C26.5546 22.0662 26.8344 21.5853 26.9789 21.0575C27.4964 19.1012 27.5002 15.0425 27.5002 15.0425C27.5002 15.0425 27.5252 10.9612 26.9914 9.00373ZM12.4952 18.7562L12.5014 11.2562L19.0102 15.0125L12.4952 18.7562Z" fill="white"/>
</svg>
